# xmcd
#
# Track frame offsets:
#	150
#	17102
#	27794
#	40850
#	57858
#	70979
#	87664
#	98560
#	107635
#	130778
#	143172
#	154101
#
# Disc length: 2375 seconds
# Revision: 3
# Processed by: cddbd v1.5.2PL0 Copyright (c) Steve Scherf et al.
# Submitted via: dBpowerAMP V12.0
#
DISCID=9909450c
DTITLE=Nine Below Zero - Don't Point Your Finger
DYEAR=1981
DGENRE=Blues
TTITLE0=One Way Street
TTITLE1=Doghouse
TTITLE2=Liquor Lover
TTITLE3=Helen
TTITLE4=Ain't Coming Back
TTITLE5=I Won't Lie
TTITLE6=Treat Her Right
TTITLE7=Three Times Enough
TTITLE8=Sugar Mama
TTITLE9=Don't Point Your Finger At The Guitar Man
TTITLE10=Rockin' Robin
TTITLE11=You Can't Please All The People All The Time
EXTD=
EXTT0=
EXTT1=
EXTT2=
EXTT3=
EXTT4=
EXTT5=
EXTT6=
EXTT7=
EXTT8=
EXTT9=
EXTT10=
EXTT11=
PLAYORDER=
